PathFileType	4	(X/Y/Z)	/Users/itak/Documents/Research/Walk-IL/dataset/trc/00454_00167.trc
DataRate	CameraRate	NumFrames	NumMarkers	Units	OrigDataRate	OrigDataStartFrame	OrigNumFrames
100.000000	100.000000	4	53	mm	100.000000	427	489
Frame#	Time	RPSI			LPSI			L3			STRN			T10			C7			CLAV			RBAK			LBAK			LSHO			LUPA			LAEL			LAOL			LWTS			LWPS			LFRA			LIFD			LHPS			LHTS			RSHO			RUPA			RAEL			RAOL			RWTS			RWPS			RFRA			RIFD			RHTS			RHPS			RBHD			LFHD			RFHD			LBHD			LHIP			RHIP			RASI			LASI			LKNE			LTHI			LANK			LTIP			LTOE			LMT1			LMT5			LHEE			RKNE			RTHI			RANK			RTIP			RTOE			RMT1			RMT5			RHEE			
		X1	Y1	Z1	X2	Y2	Z2	X3	Y3	Z3	X4	Y4	Z4	X5	Y5	Z5	X6	Y6	Z6	X7	Y7	Z7	X8	Y8	Z8	X9	Y9	Z9	X10	Y10	Z10	X11	Y11	Z11	X12	Y12	Z12	X13	Y13	Z13	X14	Y14	Z14	X15	Y15	Z15	X16	Y16	Z16	X17	Y17	Z17	X18	Y18	Z18	X19	Y19	Z19	X20	Y20	Z20	X21	Y21	Z21	X22	Y22	Z22	X23	Y23	Z23	X24	Y24	Z24	X25	Y25	Z25	X26	Y26	Z26	X27	Y27	Z27	X28	Y28	Z28	X29	Y29	Z29	X30	Y30	Z30	X31	Y31	Z31	X32	Y32	Z32	X33	Y33	Z33	X34	Y34	Z34	X35	Y35	Z35	X36	Y36	Z36	X37	Y37	Z37	X38	Y38	Z38	X39	Y39	Z39	X40	Y40	Z40	X41	Y41	Z41	X42	Y42	Z42	X43	Y43	Z43	X44	Y44	Z44	X45	Y45	Z45	X46	Y46	Z46	X47	Y47	Z47	X48	Y48	Z48	X49	Y49	Z49	X50	Y50	Z50	X51	Y51	Z51	X52	Y52	Z52	X53	Y53	Z53	

428	4.27	968.9791259765625	944.8098754882812	1115.709350585938	1043.794189453125	946.7427978515625	995.2996215820312	1008.885498046875	1042.70458984375	1074.468383789062	1239.574096679688	1253.559448242188	1203.430419921875	992.5429077148438	1165.3037109375	1063.745239257812	1027.775634765625	1438.086181640625	1103.23046875	1203.907470703125	1365.7890625	1179.876220703125	934.0048828125	1311.956909179688	1154.0283203125	1047.044677734375	1388.52099609375	1002.768859863281	1173.724487304688	1419.238037109375	976.487060546875	1206.460205078125	1305.777221679688	880.091064453125	1235.469482421875	1097.745727539062	835.69287109375	1137.53515625	1080.772583007812	865.5210571289062	1289.133666992188	900.7702026367188	873.109130859375	1260.274047851562	881.74072265625	807.0560302734375	1255.364501953125	1011.026733398438	821.7987060546875	1329.692626953125	745.5567016601562	881.0764770507812	1286.885375976562	802.5862426757812	810.8659057617188	1327.150756835938	826.6019287109375	866.29443359375	1006.931579589844	1411.788818359375	1273.583618164062	953.4238891601562	1349.937377929688	1329.248291015625	936.0599975585938	1068.980712890625	1394.807250976562	917.384765625	1039.32275390625	1336.176635742188	1092.948364257812	916.1358032226562	1447.630737304688	1015.719360351562	876.5632934570312	1461.020385742188	948.15087890625	1014.764099121094	1413.687866210938	1139.699462890625	769.6738891601562	1487.486206054688	1128.614990234375	830.1145629882812	1488.602783203125	1058.148803710938	802.6728515625	1487.345336914062	1036.11328125	1631.045166015625	1205.956787109375	1229.766235351562	1668.729614257812	1144.677978515625	1160.4521484375	1664.677490234375	1254.7119140625	1115.811767578125	1639.427368164062	1047.171752929688	1224.7353515625	853.6880493164062	966.1947631835938	1000.567016601562	846.0728759765625	1296.685302734375	1119.046630859375	891.8538208007812	1294.618774414062	1266.053955078125	895.8504638671875	1083.217163085938	1260.706176757812	433.1762390136719	1009.378051757812	1277.951416015625	588.1409912109375	1000.435729980469	1168.939208984375	20.18957901000977	930.0214233398438	1246.829711914062	280.1544494628906	979.4666748046875	1317.760131835938	31.17490196228027	1119.7958984375	1240.5458984375	39.15998077392578	1102.16796875	1301.760620117188	29.23946762084961	1005.168640136719	1095.234375	14.63007640838623	945.8973999023438	1068.48095703125	455.7719421386719	1299.494140625	1042.71826171875	715.4259643554688	1330.456420898438	991.490234375	31.92012405395508	1254.183715820312	1050.236938476562	309.7240600585938	1302.707641601562	1203.82666015625	36.06672286987305	1321.948364257812	1166.150146484375	43.1690559387207	1261.475708007812	1092.982788085938	36.83929824829102	1342.982421875	959.3521118164062	24.48160934448242	1180.42919921875	
429	4.28	970.2745361328125	945.5189208984375	1115.40966796875	1045.13134765625	947.4190063476562	995.1785888671875	1010.319763183594	1043.031494140625	1074.292236328125	1241.159301757812	1253.731567382812	1202.833129882812	993.7949829101562	1165.7041015625	1063.41845703125	1029.315307617188	1438.459594726562	1102.947509765625	1205.528442382812	1365.99169921875	1179.312133789062	935.5477905273438	1312.34765625	1154.035400390625	1048.373779296875	1388.857421875	1002.552612304688	1175.080932617188	1419.559814453125	975.9901733398438	1207.593017578125	1306.170288085938	879.4815673828125	1236.5302734375	1098.136474609375	835.042236328125	1138.716430664062	1081.248413085938	864.9972534179688	1290.173950195312	900.9901123046875	871.9879760742188	1261.12890625	882.1338500976562	805.9873657226562	1256.360107421875	1011.457946777344	820.9642333984375	1330.5126953125	745.5946655273438	879.4851684570312	1287.509887695312	802.87353515625	809.5750122070312	1328.054321289062	826.6851806640625	864.94482421875	1008.871704101562	1412.010498046875	1273.505615234375	955.657470703125	1350.044677734375	1329.347534179688	938.4351196289062	1068.381591796875	1393.501831054688	918.936767578125	1040.045043945312	1334.517333984375	1091.244750976562	910.4041748046875	1444.02978515625	1012.903503417969	872.9278564453125	1456.916870117188	949.1292114257812	1013.643371582031	1411.520385742188	1133.522705078125	761.7810668945312	1480.947387695312	1124.289306640625	822.4280395507812	1483.104858398438	1052.996337890625	797.3070678710938	1481.687255859375	1037.698120117188	1631.381958007812	1205.4189453125	1231.526977539062	1668.98388671875	1144.594970703125	1161.962036132812	1664.855346679688	1254.442504882812	1117.785400390625	1639.740234375	1046.764038085938	1225.723022460938	853.896484375	966.0506591796875	1001.330261230469	846.5507202148438	1296.359252929688	1119.974975585938	892.046875	1294.603149414062	1267.23193359375	895.8060302734375	1083.165771484375	1259.630981445312	433.3180236816406	1008.652954101562	1277.4306640625	588.0746459960938	999.8096313476562	1168.92138671875	20.19454193115234	929.9959716796875	1246.217407226562	280.3965759277344	978.9808959960938	1317.707763671875	31.24932098388672	1119.792236328125	1240.456787109375	39.15838241577148	1102.196533203125	1301.692260742188	29.3086109161377	1005.1826171875	1095.182739257812	14.55086708068848	945.9151000976562	1067.779663085938	455.9130249023438	1298.621337890625	1042.952514648438	715.7828979492188	1330.061889648438	991.4590454101562	31.88210868835449	1254.156982421875	1049.568969726562	309.9350891113281	1302.1689453125	1203.752319335938	36.10049438476562	1321.9580078125	1166.099609375	43.21016693115234	1261.509765625	1092.951171875	36.834716796875	1342.967041015625	959.37353515625	24.45600318908691	1180.375	
430	4.29	971.5308837890625	946.2150268554688	1115.0419921875	1046.46533203125	948.082763671875	995.0322875976562	1011.756591796875	1043.329956054688	1074.149047851562	1242.699584960938	1253.8671875	1202.252685546875	995.0383911132812	1166.057861328125	1063.0810546875	1030.810546875	1438.808227539062	1102.723388671875	1207.11865234375	1366.156982421875	1178.762573242188	937.030029296875	1312.737548828125	1154.073486328125	1049.622802734375	1389.195922851562	1002.364562988281	1176.381469726562	1419.87890625	975.52783203125	1208.607177734375	1306.587646484375	878.8479614257812	1237.487915039062	1098.542236328125	834.3093872070312	1139.824951171875	1081.705688476562	864.4193115234375	1291.345336914062	901.348388671875	871.061279296875	1262.150634765625	882.5374755859375	805.1389770507812	1257.351318359375	1011.900085449219	820.1521606445312	1331.68115234375	745.8597412109375	878.3231201171875	1288.407958984375	803.2149658203125	808.6221923828125	1329.176025390625	826.9569702148438	863.89990234375	1010.785217285156	1412.182250976562	1273.472778320312	957.8704833984375	1350.08544921875	1329.471313476562	940.7567749023438	1067.811401367188	1392.242797851562	920.4114379882812	1040.78369140625	1332.887573242188	1089.2509765625	904.66162109375	1440.27392578125	1009.800109863281	869.409912109375	1452.7099609375	950.0042724609375	1012.567077636719	1409.360595703125	1126.765625	753.9444580078125	1474.06591796875	1119.494506835938	814.7311401367188	1477.290649414062	1047.393188476562	792.0504150390625	1475.789672851562	1039.238159179688	1631.68701171875	1204.908569335938	1233.219970703125	1669.2509765625	1144.4951171875	1163.406616210938	1665.0302734375	1254.146484375	1119.673095703125	1640.006958007812	1046.396850585938	1226.722900390625	854.115234375	965.9215087890625	1001.998596191406	846.99462890625	1295.982666015625	1120.801025390625	892.1925659179688	1294.564331054688	1268.363525390625	895.7390747070312	1083.150512695312	1258.480712890625	433.4868774414062	1007.869140625	1276.860961914062	588.0264892578125	999.1511840820312	1168.905639648438	20.20368957519531	929.967529296875	1245.540893554688	280.6784057617188	978.4561767578125	1317.644653320312	31.31963539123535	1119.783203125	1240.35009765625	39.16105651855469	1102.22021484375	1301.623657226562	29.3771800994873	1005.201416015625	1095.140869140625	14.49098110198975	945.9166259765625	1067.025146484375	456.0357360839844	1297.745483398438	1043.098022460938	716.1226806640625	1329.590454101562	991.4154663085938	31.82813453674316	1254.119018554688	1048.8720703125	310.1272888183594	1301.619873046875	1203.665405273438	36.14784622192383	1321.968505859375	1166.04443359375	43.25504302978516	1261.548095703125	1092.91552734375	36.83099365234375	1342.954833984375	959.3923950195312	24.41963195800781	1180.31982421875	
431	4.3	972.748046875	946.89990234375	1114.626342773438	1047.788330078125	948.732666015625	994.8588256835938	1013.184143066406	1043.60009765625	1074.045532226562	1244.197021484375	1253.9697265625	1201.685791015625	996.268310546875	1166.367065429688	1062.753173828125	1032.2626953125	1439.125854492188	1102.5556640625	1208.675170898438	1366.285278320312	1178.226196289062	938.45263671875	1313.120483398438	1154.125732421875	1050.798828125	1389.533447265625	1002.201721191406	1177.619262695312	1420.189697265625	975.0975341796875	1209.512329101562	1307.015014648438	878.1996459960938	1238.36279296875	1098.951904296875	833.5180053710938	1140.874267578125	1082.142333984375	863.8049926757812	1292.645141601562	901.8251342773438	870.3289184570312	1263.34130859375	882.9445190429688	804.5020751953125	1258.355102539062	1012.344543457031	819.3796997070312	1333.16845703125	746.3236083984375	877.5720825195312	1289.58056640625	803.6043090820312	807.9907836914062	1330.504150390625	827.3950805664062	863.155029296875	1012.659484863281	1412.284790039062	1273.4736328125	960.049560546875	1350.0458984375	1329.607299804688	942.97705078125	1067.259155273438	1390.999633789062	921.8492431640625	1041.509399414062	1331.244140625	1086.962280273438	898.9703369140625	1436.387451171875	1006.42919921875	866.0466918945312	1448.406982421875	950.7623291015625	1011.532165527344	1407.20166015625	1119.468872070312	746.2675170898438	1466.900268554688	1114.248779296875	807.1229248046875	1471.213989257812	1041.396606445312	786.9918823242188	1469.706176757812	1040.739868164062	1631.952758789062	1204.43505859375	1234.847412109375	1669.522094726562	1144.3876953125	1164.786865234375	1665.197021484375	1253.836669921875	1121.476806640625	1640.2333984375	1046.086669921875	1227.735961914062	854.3504638671875	965.8095703125	1002.584777832031	847.3984375	1295.560668945312	1121.552856445312	892.2943115234375	1294.498901367188	1269.450805664062	895.6609497070312	1083.166381835938	1257.272827148438	433.6841430664062	1007.024475097656	1276.256958007812	588.001220703125	998.4791259765625	1168.892578125	20.2186450958252	929.9337158203125	1244.800537109375	280.98876953125	977.897216796875	1317.57177734375	31.38628005981445	1119.768310546875	1240.234619140625	39.16899108886719	1102.240234375	1301.556274414062	29.4423713684082	1005.221984863281	1095.110961914062	14.45604801177979	945.8965454101562	1066.249389648438	456.141357421875	1296.890380859375	1043.179321289062	716.4373779296875	1329.045166015625	991.3611450195312	31.7598762512207	1254.067626953125	1048.17333984375	310.297607421875	1301.066772460938	1203.573120117188	36.20020294189453	1321.97509765625	1165.986328125	43.30357360839844	1261.589477539062	1092.876708984375	36.82916259765625	1342.945922851562	959.4068603515625	24.36954307556152	1180.267944335938	
